# xmcd CD database file
#
# Track frame offsets:
#	150
#	6979
#	15349
#	22654
#	31759
#	41229
#	46842
#	58724
#	61822
#	69452
#	72772
#	83082
#	95884
#	103042
#	111232
#	121247
#	126468
#	138976
#	141873
#	148761
#	151723
#	161379
#	169999
#	177976
#	193419
#	203441
#
# Disc length: 2871 seconds
#
# Revision: 0
# Processed by: cddbd v1.5.2PL0 Copyright (c) Steve Scherf et al.
# Submitted via: CDex 1.60beta1-cs1
#
DISCID=660b351a
DTITLE=Greg Champion - The Goodabeen Champions
DYEAR=2007
DGENRE=Country
TTITLE0=The Port Boys Drive Toranas
TTITLE1=Yeah Nah Yeah
TTITLE2=Club Songs Combined
TTITLE3=Matty Lloyd
TTITLE4=Henley Beach Hotel Incident
TTITLE5=Wooden Spoon
TTITLE6=The Fight in the Dog
TTITLE7=Ninth Again
TTITLE8=A Patch Upon Both Elbows
TTITLE9=Good Old Collingwood
TTITLE10=Gonna Miss Mike Sheahan
TTITLE11=Away From the Dome
TTITLE12=Shinboners
TTITLE13=South Austyralia
TTITLE14=There is a Mob Up Punt Road
TTITLE15=Robert Harvey
TTITLE16=Wanganeen
TTITLE17=Boys of Brisbane Town
TTITLE18=Setana Never Made It Into Darwin
TTITLE19=Oh When the Saints
TTITLE20=The Power and the Crow
TTITLE21=The Shores of Old Freo
TTITLE22=We Were Geelong
TTITLE23=Belindas Walked Out on Big Brother
TTITLE24=Baggy Green
TTITLE25=Thats the Thing About Football
EXTD=YEAR: 2007
EXTT0=
EXTT1=
EXTT2=
EXTT3=
EXTT4=
EXTT5=
EXTT6=
EXTT7=
EXTT8=
EXTT9=
EXTT10=
EXTT11=
EXTT12=
EXTT13=
EXTT14=
EXTT15=
EXTT16=
EXTT17=
EXTT18=
EXTT19=
EXTT20=
EXTT21=
EXTT22=
EXTT23=
EXTT24=
EXTT25=
PLAYORDER=
